<svg xmlns="http://www.w3.org/2000/svg" xmlns:xlink="http://www.w3.org/1999/xlink" width="1200" zoomAndPan="magnify" viewBox="0 0 900 899.99999" height="1200" preserveAspectRatio="xMidYMid meet" version="1.0"><defs><g/><clipPath id="b658854453"><path d="M 121 234.097656 L 192 234.097656 L 192 525.097656 L 121 525.097656 Z M 121 234.097656 " clip-rule="nonzero"/></clipPath><clipPath id="c40abbcb7c"><path d="M 186 234.097656 L 257 234.097656 L 257 525.097656 L 186 525.097656 Z M 186 234.097656 " clip-rule="nonzero"/></clipPath><clipPath id="5cf133309a"><path d="M 35.574219 520 L 345.441406 520 L 345.441406 525.097656 L 35.574219 525.097656 Z M 35.574219 520 " clip-rule="nonzero"/></clipPath><clipPath id="76e060dd17"><rect x="0" width="433" y="0" height="231"/></clipPath></defs><path fill="#000000" d="M 98.667969 524.882812 L 50.472656 524.882812 C 49.425781 524.882812 48.578125 524.03125 48.578125 522.984375 L 48.578125 343.785156 C 48.578125 343.164062 48.886719 342.578125 49.402344 342.222656 L 97.597656 309.152344 C 98.175781 308.753906 98.929688 308.710938 99.550781 309.035156 C 100.171875 309.363281 100.5625 310.007812 100.5625 310.714844 L 100.5625 522.984375 C 100.5625 524.03125 99.714844 524.882812 98.667969 524.882812 Z M 52.367188 521.089844 L 96.773438 521.089844 L 96.773438 314.3125 L 52.367188 344.785156 Z M 52.367188 521.089844 " fill-opacity="1" fill-rule="nonzero"/><path fill="#000000" d="M 57.886719 355.960938 C 57.257812 355.960938 56.644531 355.648438 56.28125 355.074219 C 55.726562 354.191406 55.992188 353.019531 56.875 352.460938 L 89.917969 331.617188 C 90.804688 331.058594 91.972656 331.324219 92.527344 332.210938 C 93.085938 333.097656 92.820312 334.269531 91.9375 334.828125 L 58.890625 355.667969 C 58.578125 355.867188 58.230469 355.960938 57.882812 355.960938 Z M 57.886719 355.960938 " fill-opacity="1" fill-rule="nonzero"/><path fill="#000000" d="M 58.03125 371.378906 C 57.375 371.378906 56.738281 371.035156 56.386719 370.421875 C 55.867188 369.511719 56.179688 368.355469 57.089844 367.832031 L 89.984375 348.972656 C 90.894531 348.449219 92.050781 348.765625 92.570312 349.675781 C 93.089844 350.585938 92.777344 351.742188 91.867188 352.261719 L 58.972656 371.125 C 58.675781 371.292969 58.351562 371.378906 58.03125 371.378906 Z M 58.03125 371.378906 " fill-opacity="1" fill-rule="nonzero"/><path fill="#000000" d="M 58.03125 386.628906 C 57.34375 386.628906 56.683594 386.253906 56.34375 385.597656 C 55.867188 384.667969 56.234375 383.523438 57.164062 383.046875 L 90.003906 366.15625 C 90.933594 365.675781 92.078125 366.042969 92.554688 366.976562 C 93.035156 367.90625 92.664062 369.050781 91.734375 369.53125 L 58.894531 386.417969 C 58.621094 386.5625 58.324219 386.628906 58.03125 386.628906 Z M 58.03125 386.628906 " fill-opacity="1" fill-rule="nonzero"/><path fill="#000000" d="M 57.699219 402.125 C 56.980469 402.125 56.292969 401.714844 55.976562 401.019531 C 55.539062 400.066406 55.960938 398.941406 56.910156 398.503906 L 90.144531 383.253906 C 91.097656 382.820312 92.222656 383.238281 92.65625 384.191406 C 93.09375 385.140625 92.671875 386.269531 91.722656 386.703125 L 58.484375 401.953125 C 58.230469 402.070312 57.960938 402.125 57.699219 402.125 Z M 57.699219 402.125 " fill-opacity="1" fill-rule="nonzero"/><path fill="#000000" d="M 58.195312 417.394531 C 57.445312 417.394531 56.738281 416.945312 56.441406 416.210938 C 56.050781 415.238281 56.519531 414.132812 57.488281 413.742188 L 90.300781 400.484375 C 91.269531 400.089844 92.371094 400.5625 92.765625 401.53125 C 93.15625 402.503906 92.6875 403.605469 91.71875 404 L 58.90625 417.257812 C 58.675781 417.351562 58.433594 417.394531 58.195312 417.394531 Z M 58.195312 417.394531 " fill-opacity="1" fill-rule="nonzero"/><path fill="#000000" d="M 58.238281 432.789062 C 57.453125 432.789062 56.71875 432.296875 56.449219 431.515625 C 56.109375 430.523438 56.628906 429.445312 57.617188 429.101562 L 90.222656 417.789062 C 91.210938 417.445312 92.285156 417.972656 92.632812 418.960938 C 92.972656 419.949219 92.449219 421.027344 91.460938 421.371094 L 58.859375 432.6875 C 58.652344 432.757812 58.445312 432.789062 58.238281 432.789062 Z M 58.238281 432.789062 " fill-opacity="1" fill-rule="nonzero"/><path fill="#000000" d="M 58.15625 448.226562 C 57.335938 448.226562 56.578125 447.6875 56.339844 446.855469 C 56.046875 445.851562 56.625 444.800781 57.628906 444.507812 L 90.402344 434.960938 C 91.40625 434.667969 92.457031 435.246094 92.75 436.253906 C 93.042969 437.261719 92.464844 438.3125 91.460938 438.605469 L 58.6875 448.148438 C 58.511719 448.203125 58.332031 448.226562 58.15625 448.226562 Z M 58.15625 448.226562 " fill-opacity="1" fill-rule="nonzero"/><path fill="#000000" d="M 58.027344 463.496094 C 57.164062 463.496094 56.386719 462.902344 56.183594 462.023438 C 55.949219 461.003906 56.585938 459.988281 57.605469 459.753906 L 90.554688 452.1875 C 91.574219 451.953125 92.589844 452.589844 92.824219 453.609375 C 93.058594 454.628906 92.421875 455.648438 91.402344 455.882812 L 58.453125 463.449219 C 58.308594 463.480469 58.164062 463.496094 58.027344 463.496094 Z M 58.027344 463.496094 " fill-opacity="1" fill-rule="nonzero"/><path fill="#000000" d="M 58.195312 478.761719 C 57.289062 478.761719 56.488281 478.109375 56.332031 477.179688 C 56.15625 476.148438 56.851562 475.171875 57.882812 474.996094 L 90.722656 469.445312 C 91.757812 469.269531 92.730469 469.964844 92.90625 471 C 93.082031 472.035156 92.386719 473.011719 91.355469 473.1875 L 58.511719 478.734375 C 58.40625 478.753906 58.300781 478.761719 58.195312 478.761719 Z M 58.195312 478.761719 " fill-opacity="1" fill-rule="nonzero"/><path fill="#000000" d="M 58.070312 494.117188 C 57.117188 494.117188 56.296875 493.398438 56.191406 492.425781 C 56.078125 491.386719 56.824219 490.449219 57.863281 490.335938 L 90.800781 486.683594 C 91.835938 486.570312 92.777344 487.320312 92.890625 488.359375 C 93.003906 489.402344 92.253906 490.339844 91.214844 490.453125 L 58.28125 494.101562 C 58.207031 494.109375 58.136719 494.113281 58.070312 494.113281 Z M 58.070312 494.117188 " fill-opacity="1" fill-rule="nonzero"/><path fill="#000000" d="M 58.070312 509.550781 C 57.070312 509.550781 56.234375 508.769531 56.179688 507.757812 C 56.121094 506.714844 56.921875 505.820312 57.964844 505.765625 L 90.902344 503.945312 C 91.957031 503.890625 92.839844 504.691406 92.894531 505.734375 C 92.953125 506.78125 92.152344 507.675781 91.109375 507.730469 L 58.171875 509.546875 C 58.136719 509.546875 58.101562 509.546875 58.066406 509.546875 Z M 58.070312 509.550781 " fill-opacity="1" fill-rule="nonzero"/><path fill="#000000" d="M 123.417969 524.882812 L 98.667969 524.882812 C 97.621094 524.882812 96.773438 524.03125 96.773438 522.984375 L 96.773438 310.714844 C 96.773438 310.015625 97.160156 309.371094 97.78125 309.039062 C 98.398438 308.714844 99.148438 308.75 99.726562 309.144531 L 117.199219 320.972656 C 118.066406 321.558594 118.292969 322.734375 117.710938 323.605469 C 117.125 324.472656 115.945312 324.699219 115.078125 324.113281 L 100.5625 314.285156 L 100.5625 521.09375 L 123.417969 521.09375 C 124.460938 521.09375 125.308594 521.941406 125.308594 522.988281 C 125.308594 524.035156 124.460938 524.882812 123.417969 524.882812 Z M 123.417969 524.882812 " fill-opacity="1" fill-rule="nonzero"/><path fill="#000000" d="M 116.105469 341.296875 C 115.761719 341.296875 115.414062 341.203125 115.101562 341.007812 L 105.40625 334.925781 C 104.519531 334.371094 104.25 333.199219 104.804688 332.3125 C 105.359375 331.425781 106.53125 331.15625 107.414062 331.710938 L 117.109375 337.796875 C 117.996094 338.351562 118.265625 339.523438 117.710938 340.410156 C 117.351562 340.984375 116.734375 341.296875 116.101562 341.296875 Z M 116.105469 341.296875 " fill-opacity="1" fill-rule="nonzero"/><path fill="#000000" d="M 116.222656 357.96875 C 115.90625 357.96875 115.585938 357.886719 115.289062 357.71875 L 105.402344 352.097656 C 104.496094 351.582031 104.175781 350.421875 104.691406 349.511719 C 105.207031 348.601562 106.363281 348.28125 107.273438 348.796875 L 117.160156 354.421875 C 118.066406 354.9375 118.386719 356.097656 117.871094 357.007812 C 117.523438 357.621094 116.882812 357.96875 116.222656 357.96875 Z M 116.222656 357.96875 " fill-opacity="1" fill-rule="nonzero"/><path fill="#000000" d="M 116.195312 374.605469 C 115.902344 374.605469 115.605469 374.539062 115.332031 374.398438 L 105.390625 369.277344 C 104.460938 368.796875 104.09375 367.65625 104.570312 366.722656 C 105.050781 365.792969 106.1875 365.425781 107.121094 365.902344 L 117.0625 371.023438 C 117.992188 371.5 118.359375 372.640625 117.882812 373.578125 C 117.542969 374.230469 116.882812 374.605469 116.195312 374.605469 Z M 116.195312 374.605469 " fill-opacity="1" fill-rule="nonzero"/><path fill="#000000" d="M 115.972656 391.355469 C 115.707031 391.355469 115.433594 391.300781 115.175781 391.179688 L 105.65625 386.761719 C 104.707031 386.320312 104.292969 385.191406 104.734375 384.246094 C 105.171875 383.296875 106.296875 382.878906 107.246094 383.320312 L 116.765625 387.738281 C 117.714844 388.179688 118.128906 389.308594 117.6875 390.257812 C 117.367188 390.949219 116.683594 391.355469 115.972656 391.355469 Z M 115.972656 391.355469 " fill-opacity="1" fill-rule="nonzero"/><path fill="#000000" d="M 116.042969 408.039062 C 115.804688 408.039062 115.570312 407.996094 115.335938 407.902344 L 105.589844 403.957031 C 104.621094 403.566406 104.152344 402.460938 104.542969 401.492188 C 104.9375 400.519531 106.039062 400.050781 107.007812 400.441406 L 116.753906 404.386719 C 117.722656 404.777344 118.191406 405.882812 117.800781 406.855469 C 117.5 407.589844 116.789062 408.039062 116.042969 408.039062 Z M 116.042969 408.039062 " fill-opacity="1" fill-rule="nonzero"/><path fill="#000000" d="M 116.105469 424.652344 C 115.90625 424.652344 115.699219 424.621094 115.5 424.550781 L 105.695312 421.238281 C 104.707031 420.902344 104.175781 419.828125 104.507812 418.835938 C 104.84375 417.84375 105.921875 417.3125 106.910156 417.648438 L 116.710938 420.960938 C 117.703125 421.292969 118.234375 422.371094 117.898438 423.363281 C 117.632812 424.152344 116.894531 424.652344 116.105469 424.652344 Z M 116.105469 424.652344 " fill-opacity="1" fill-rule="nonzero"/><path fill="#000000" d="M 115.980469 441.484375 C 115.800781 441.484375 115.621094 441.457031 115.4375 441.402344 L 105.796875 438.511719 C 104.796875 438.210938 104.226562 437.152344 104.527344 436.152344 C 104.824219 435.148438 105.882812 434.574219 106.882812 434.878906 L 116.527344 437.769531 C 117.527344 438.070312 118.09375 439.128906 117.796875 440.132812 C 117.550781 440.953125 116.796875 441.484375 115.980469 441.484375 Z M 115.980469 441.484375 " fill-opacity="1" fill-rule="nonzero"/><path fill="#000000" d="M 116.015625 458.042969 C 115.878906 458.042969 115.742188 458.027344 115.597656 457.996094 L 106.054688 455.855469 C 105.035156 455.628906 104.390625 454.617188 104.621094 453.59375 C 104.847656 452.570312 105.859375 451.925781 106.882812 452.15625 L 116.425781 454.296875 C 117.445312 454.523438 118.089844 455.535156 117.859375 456.558594 C 117.664062 457.441406 116.882812 458.042969 116.015625 458.042969 Z M 116.015625 458.042969 " fill-opacity="1" fill-rule="nonzero"/><path fill="#000000" d="M 116.089844 474.820312 C 115.980469 474.820312 115.875 474.808594 115.769531 474.792969 L 105.964844 473.128906 C 104.933594 472.953125 104.242188 471.972656 104.417969 470.941406 C 104.59375 469.90625 105.570312 469.214844 106.597656 469.390625 L 116.402344 471.054688 C 117.433594 471.230469 118.125 472.210938 117.949219 473.242188 C 117.792969 474.164062 116.992188 474.820312 116.085938 474.820312 Z M 116.089844 474.820312 " fill-opacity="1" fill-rule="nonzero"/><path fill="#000000" d="M 116.046875 491.539062 C 115.976562 491.539062 115.90625 491.535156 115.832031 491.523438 L 106.242188 490.457031 C 105.203125 490.339844 104.453125 489.402344 104.566406 488.363281 C 104.683594 487.320312 105.617188 486.570312 106.65625 486.6875 L 116.25 487.757812 C 117.289062 487.875 118.035156 488.8125 117.921875 489.847656 C 117.816406 490.816406 116.996094 491.535156 116.042969 491.535156 Z M 116.046875 491.539062 " fill-opacity="1" fill-rule="nonzero"/><path fill="#000000" d="M 116.089844 508.253906 C 116.054688 508.253906 116.023438 508.253906 115.988281 508.253906 L 106.3125 507.75 C 105.269531 507.695312 104.464844 506.804688 104.519531 505.757812 C 104.574219 504.710938 105.476562 503.898438 106.507812 503.960938 L 116.183594 504.464844 C 117.226562 504.519531 118.03125 505.410156 117.976562 506.457031 C 117.925781 507.46875 117.089844 508.253906 116.089844 508.253906 Z M 116.089844 508.253906 " fill-opacity="1" fill-rule="nonzero"/><path fill="#000000" d="M 327.679688 524.882812 L 279.484375 524.882812 C 278.4375 524.882812 277.59375 524.03125 277.59375 522.984375 L 277.59375 310.714844 C 277.59375 310.011719 277.980469 309.367188 278.605469 309.035156 C 279.226562 308.710938 279.976562 308.753906 280.554688 309.152344 L 328.75 342.222656 C 329.265625 342.578125 329.574219 343.160156 329.574219 343.785156 L 329.574219 522.984375 C 329.574219 524.03125 328.726562 524.882812 327.679688 524.882812 Z M 281.375 521.089844 L 325.785156 521.089844 L 325.785156 344.785156 L 281.375 314.3125 Z M 281.375 521.089844 " fill-opacity="1" fill-rule="nonzero"/><path fill="#000000" d="M 320.265625 355.960938 C 319.921875 355.960938 319.570312 355.867188 319.257812 355.667969 L 286.214844 334.828125 C 285.328125 334.269531 285.066406 333.097656 285.621094 332.214844 C 286.179688 331.328125 287.351562 331.0625 288.230469 331.621094 L 321.273438 352.464844 C 322.160156 353.019531 322.425781 354.195312 321.867188 355.074219 C 321.503906 355.648438 320.894531 355.960938 320.261719 355.960938 Z M 320.265625 355.960938 " fill-opacity="1" fill-rule="nonzero"/><path fill="#000000" d="M 320.121094 371.378906 C 319.800781 371.378906 319.476562 371.296875 319.183594 371.125 L 286.285156 352.261719 C 285.378906 351.742188 285.066406 350.585938 285.585938 349.675781 C 286.105469 348.765625 287.261719 348.449219 288.167969 348.972656 L 321.066406 367.832031 C 321.972656 368.355469 322.285156 369.511719 321.765625 370.421875 C 321.414062 371.03125 320.777344 371.378906 320.121094 371.378906 Z M 320.121094 371.378906 " fill-opacity="1" fill-rule="nonzero"/><path fill="#000000" d="M 320.121094 386.628906 C 319.828125 386.628906 319.535156 386.5625 319.257812 386.417969 L 286.417969 369.53125 C 285.488281 369.050781 285.121094 367.910156 285.597656 366.976562 C 286.078125 366.042969 287.214844 365.675781 288.148438 366.15625 L 320.988281 383.046875 C 321.917969 383.523438 322.285156 384.664062 321.808594 385.597656 C 321.472656 386.253906 320.808594 386.628906 320.121094 386.628906 Z M 320.121094 386.628906 " fill-opacity="1" fill-rule="nonzero"/><path fill="#000000" d="M 320.457031 402.125 C 320.191406 402.125 319.925781 402.070312 319.667969 401.953125 L 286.429688 386.703125 C 285.480469 386.269531 285.066406 385.140625 285.5 384.191406 C 285.933594 383.238281 287.058594 382.816406 288.007812 383.253906 L 321.242188 398.503906 C 322.195312 398.941406 322.609375 400.066406 322.175781 401.019531 C 321.859375 401.714844 321.171875 402.125 320.457031 402.125 Z M 320.457031 402.125 " fill-opacity="1" fill-rule="nonzero"/><path fill="#000000" d="M 319.953125 417.394531 C 319.71875 417.394531 319.476562 417.351562 319.242188 417.257812 L 286.429688 404 C 285.460938 403.605469 284.992188 402.503906 285.382812 401.53125 C 285.777344 400.558594 286.878906 400.089844 287.847656 400.484375 L 320.660156 413.742188 C 321.632812 414.132812 322.101562 415.238281 321.707031 416.210938 C 321.414062 416.945312 320.699219 417.394531 319.953125 417.394531 Z M 319.953125 417.394531 " fill-opacity="1" fill-rule="nonzero"/><path fill="#000000" d="M 319.910156 432.789062 C 319.707031 432.789062 319.5 432.753906 319.292969 432.6875 L 286.6875 421.371094 C 285.703125 421.027344 285.179688 419.949219 285.519531 418.960938 C 285.859375 417.972656 286.9375 417.445312 287.929688 417.789062 L 320.53125 429.101562 C 321.519531 429.445312 322.042969 430.523438 321.703125 431.515625 C 321.429688 432.296875 320.695312 432.789062 319.910156 432.789062 Z M 319.910156 432.789062 " fill-opacity="1" fill-rule="nonzero"/><path fill="#000000" d="M 319.996094 448.226562 C 319.820312 448.226562 319.644531 448.203125 319.46875 448.148438 L 286.691406 438.605469 C 285.6875 438.3125 285.113281 437.261719 285.402344 436.253906 C 285.695312 435.246094 286.746094 434.667969 287.75 434.960938 L 320.523438 444.507812 C 321.53125 444.800781 322.105469 445.851562 321.816406 446.855469 C 321.574219 447.683594 320.816406 448.226562 319.996094 448.226562 Z M 319.996094 448.226562 " fill-opacity="1" fill-rule="nonzero"/><path fill="#000000" d="M 320.125 463.496094 C 319.984375 463.496094 319.84375 463.480469 319.703125 463.449219 L 286.75 455.882812 C 285.730469 455.648438 285.09375 454.628906 285.328125 453.609375 C 285.5625 452.589844 286.578125 451.953125 287.597656 452.1875 L 320.546875 459.753906 C 321.566406 459.988281 322.203125 461.003906 321.96875 462.023438 C 321.769531 462.902344 320.988281 463.496094 320.125 463.496094 Z M 320.125 463.496094 " fill-opacity="1" fill-rule="nonzero"/><path fill="#000000" d="M 319.957031 478.761719 C 319.851562 478.761719 319.746094 478.753906 319.640625 478.734375 L 286.800781 473.1875 C 285.765625 473.011719 285.074219 472.035156 285.246094 471 C 285.421875 469.964844 286.398438 469.269531 287.429688 469.445312 L 320.269531 474.996094 C 321.300781 475.167969 321.992188 476.148438 321.820312 477.179688 C 321.667969 478.109375 320.863281 478.761719 319.957031 478.761719 Z M 319.957031 478.761719 " fill-opacity="1" fill-rule="nonzero"/><path fill="#000000" d="M 320.082031 494.117188 C 320.015625 494.117188 319.941406 494.113281 319.875 494.105469 L 286.9375 490.457031 C 285.898438 490.339844 285.148438 489.402344 285.265625 488.363281 C 285.378906 487.320312 286.3125 486.570312 287.351562 486.6875 L 320.289062 490.339844 C 321.328125 490.453125 322.082031 491.390625 321.964844 492.429688 C 321.855469 493.398438 321.039062 494.121094 320.082031 494.121094 Z M 320.082031 494.117188 " fill-opacity="1" fill-rule="nonzero"/><path fill="#000000" d="M 320.082031 509.550781 C 320.046875 509.550781 320.011719 509.550781 319.972656 509.550781 L 287.035156 507.734375 C 285.992188 507.675781 285.191406 506.785156 285.25 505.738281 C 285.308594 504.695312 286.195312 503.890625 287.242188 503.949219 L 320.179688 505.765625 C 321.222656 505.824219 322.023438 506.71875 321.964844 507.761719 C 321.910156 508.773438 321.074219 509.554688 320.078125 509.554688 Z M 320.082031 509.550781 " fill-opacity="1" fill-rule="nonzero"/><path fill="#000000" d="M 279.480469 524.882812 L 254.734375 524.882812 C 253.6875 524.882812 252.839844 524.03125 252.839844 522.984375 C 252.839844 521.9375 253.6875 521.089844 254.734375 521.089844 L 277.589844 521.089844 L 277.589844 314.285156 L 263.070312 324.109375 C 262.203125 324.695312 261.027344 324.46875 260.441406 323.601562 C 259.855469 322.730469 260.082031 321.554688 260.949219 320.96875 L 278.421875 309.140625 C 279.003906 308.746094 279.75 308.710938 280.371094 309.035156 C 280.988281 309.363281 281.375 310.007812 281.375 310.710938 L 281.375 522.980469 C 281.375 524.03125 280.527344 524.878906 279.480469 524.878906 Z M 279.480469 524.882812 " fill-opacity="1" fill-rule="nonzero"/><path fill="#000000" d="M 262.046875 341.296875 C 261.417969 341.296875 260.800781 340.980469 260.441406 340.410156 C 259.886719 339.523438 260.15625 338.351562 261.039062 337.796875 L 270.734375 331.710938 C 271.625 331.15625 272.789062 331.425781 273.34375 332.3125 C 273.898438 333.199219 273.628906 334.371094 272.746094 334.925781 L 263.050781 341.007812 C 262.734375 341.203125 262.386719 341.296875 262.042969 341.296875 Z M 262.046875 341.296875 " fill-opacity="1" fill-rule="nonzero"/><path fill="#000000" d="M 261.925781 357.96875 C 261.269531 357.96875 260.628906 357.625 260.277344 357.007812 C 259.761719 356.097656 260.082031 354.9375 260.992188 354.421875 L 270.875 348.796875 C 271.785156 348.28125 272.941406 348.601562 273.457031 349.511719 C 273.972656 350.421875 273.652344 351.582031 272.746094 352.097656 L 262.859375 357.71875 C 262.5625 357.886719 262.242188 357.96875 261.925781 357.96875 Z M 261.925781 357.96875 " fill-opacity="1" fill-rule="nonzero"/><path fill="#000000" d="M 261.957031 374.605469 C 261.269531 374.605469 260.609375 374.230469 260.273438 373.578125 C 259.792969 372.644531 260.160156 371.5 261.089844 371.023438 L 271.03125 365.902344 C 271.960938 365.425781 273.101562 365.792969 273.582031 366.722656 C 274.058594 367.652344 273.691406 368.796875 272.761719 369.277344 L 262.820312 374.398438 C 262.546875 374.539062 262.25 374.605469 261.957031 374.605469 Z M 261.957031 374.605469 " fill-opacity="1" fill-rule="nonzero"/><path fill="#000000" d="M 262.179688 391.355469 C 261.460938 391.355469 260.78125 390.949219 260.460938 390.257812 C 260.019531 389.304688 260.433594 388.179688 261.382812 387.738281 L 270.902344 383.320312 C 271.855469 382.878906 272.980469 383.292969 273.417969 384.246094 C 273.855469 385.195312 273.445312 386.324219 272.496094 386.761719 L 262.972656 391.179688 C 262.714844 391.300781 262.445312 391.355469 262.179688 391.355469 Z M 262.179688 391.355469 " fill-opacity="1" fill-rule="nonzero"/><path fill="#000000" d="M 262.109375 408.039062 C 261.359375 408.039062 260.648438 407.589844 260.355469 406.855469 C 259.960938 405.882812 260.429688 404.777344 261.402344 404.386719 L 271.144531 400.441406 C 272.117188 400.050781 273.21875 400.519531 273.609375 401.492188 C 274 402.460938 273.535156 403.566406 272.5625 403.957031 L 262.820312 407.902344 C 262.589844 407.996094 262.347656 408.039062 262.109375 408.039062 Z M 262.109375 408.039062 " fill-opacity="1" fill-rule="nonzero"/><path fill="#000000" d="M 262.042969 424.652344 C 261.257812 424.652344 260.515625 424.152344 260.25 423.363281 C 259.917969 422.371094 260.445312 421.292969 261.4375 420.960938 L 271.242188 417.648438 C 272.230469 417.3125 273.304688 417.84375 273.640625 418.835938 C 273.972656 419.828125 273.445312 420.902344 272.453125 421.238281 L 262.648438 424.550781 C 262.449219 424.621094 262.242188 424.652344 262.042969 424.652344 Z M 262.042969 424.652344 " fill-opacity="1" fill-rule="nonzero"/><path fill="#000000" d="M 262.171875 441.484375 C 261.355469 441.484375 260.605469 440.953125 260.359375 440.132812 C 260.058594 439.128906 260.625 438.074219 261.628906 437.769531 L 271.269531 434.878906 C 272.265625 434.574219 273.324219 435.148438 273.625 436.152344 C 273.925781 437.152344 273.359375 438.207031 272.355469 438.511719 L 262.714844 441.402344 C 262.53125 441.457031 262.351562 441.484375 262.171875 441.484375 Z M 262.171875 441.484375 " fill-opacity="1" fill-rule="nonzero"/><path fill="#000000" d="M 262.132812 458.042969 C 261.265625 458.042969 260.484375 457.441406 260.289062 456.558594 C 260.0625 455.539062 260.703125 454.523438 261.722656 454.296875 L 271.269531 452.15625 C 272.292969 451.925781 273.304688 452.570312 273.53125 453.59375 C 273.757812 454.613281 273.117188 455.628906 272.09375 455.855469 L 262.550781 457.996094 C 262.414062 458.027344 262.269531 458.042969 262.132812 458.042969 Z M 262.132812 458.042969 " fill-opacity="1" fill-rule="nonzero"/><path fill="#000000" d="M 262.066406 474.820312 C 261.160156 474.820312 260.359375 474.164062 260.199219 473.242188 C 260.023438 472.210938 260.71875 471.230469 261.75 471.054688 L 271.550781 469.390625 C 272.582031 469.21875 273.558594 469.910156 273.734375 470.941406 C 273.910156 471.972656 273.214844 472.953125 272.183594 473.128906 L 262.382812 474.792969 C 262.273438 474.808594 262.167969 474.820312 262.0625 474.820312 Z M 262.066406 474.820312 " fill-opacity="1" fill-rule="nonzero"/><path fill="#000000" d="M 262.105469 491.539062 C 261.15625 491.539062 260.332031 490.820312 260.226562 489.851562 C 260.109375 488.8125 260.859375 487.875 261.898438 487.757812 L 271.492188 486.691406 C 272.535156 486.574219 273.46875 487.324219 273.582031 488.367188 C 273.699219 489.40625 272.949219 490.34375 271.910156 490.457031 L 262.316406 491.527344 C 262.242188 491.535156 262.175781 491.542969 262.101562 491.542969 Z M 262.105469 491.539062 " fill-opacity="1" fill-rule="nonzero"/><path fill="#000000" d="M 262.066406 508.253906 C 261.0625 508.253906 260.230469 507.464844 260.175781 506.457031 C 260.121094 505.410156 260.921875 504.519531 261.96875 504.464844 L 271.644531 503.960938 C 272.679688 503.898438 273.578125 504.707031 273.632812 505.757812 C 273.6875 506.800781 272.886719 507.695312 271.839844 507.75 L 262.164062 508.253906 C 262.128906 508.253906 262.097656 508.253906 262.066406 508.253906 Z M 262.066406 508.253906 " fill-opacity="1" fill-rule="nonzero"/><g clip-path="url(#b658854453)"><path fill="#000000" d="M 189.039062 525.085938 L 123.910156 525.085938 C 122.769531 525.085938 121.84375 524.160156 121.84375 523.019531 L 121.84375 280.859375 C 121.84375 280.175781 122.179688 279.539062 122.742188 279.152344 L 187.867188 234.460938 C 188.5 234.027344 189.320312 233.976562 190 234.335938 C 190.675781 234.695312 191.101562 235.398438 191.101562 236.167969 L 191.101562 523.019531 C 191.101562 524.160156 190.175781 525.085938 189.035156 525.085938 Z M 125.96875 520.953125 L 186.96875 520.953125 L 186.96875 240.089844 L 125.96875 281.945312 Z M 125.96875 520.953125 " fill-opacity="1" fill-rule="nonzero"/></g><path fill="#000000" d="M 131.976562 298.070312 C 131.292969 298.070312 130.621094 297.726562 130.226562 297.101562 C 129.621094 296.136719 129.910156 294.859375 130.875 294.253906 L 179.773438 263.4375 C 180.738281 262.828125 182.011719 263.117188 182.621094 264.085938 C 183.226562 265.050781 182.9375 266.328125 181.972656 266.933594 L 133.074219 297.75 C 132.734375 297.964844 132.351562 298.070312 131.976562 298.070312 Z M 131.976562 298.070312 " fill-opacity="1" fill-rule="nonzero"/><path fill="#000000" d="M 131.949219 318.710938 C 131.230469 318.710938 130.535156 318.332031 130.152344 317.664062 C 129.589844 316.671875 129.933594 315.410156 130.921875 314.84375 L 179.875 286.90625 C 180.867188 286.339844 182.128906 286.6875 182.691406 287.679688 C 183.257812 288.671875 182.910156 289.933594 181.921875 290.5 L 132.96875 318.4375 C 132.644531 318.621094 132.292969 318.710938 131.949219 318.710938 Z M 131.949219 318.710938 " fill-opacity="1" fill-rule="nonzero"/><path fill="#000000" d="M 131.949219 339.320312 C 131.199219 339.320312 130.480469 338.910156 130.109375 338.199219 C 129.589844 337.183594 129.988281 335.9375 131.003906 335.414062 L 180.023438 310.132812 C 181.039062 309.609375 182.28125 310.007812 182.804688 311.027344 C 183.328125 312.042969 182.929688 313.289062 181.914062 313.8125 L 132.890625 339.09375 C 132.589844 339.246094 132.265625 339.324219 131.949219 339.324219 Z M 131.949219 339.320312 " fill-opacity="1" fill-rule="nonzero"/><path fill="#000000" d="M 131.941406 359.910156 C 131.15625 359.910156 130.40625 359.457031 130.058594 358.695312 C 129.589844 357.652344 130.046875 356.429688 131.085938 355.957031 L 180.113281 333.664062 C 181.152344 333.191406 182.375 333.652344 182.847656 334.691406 C 183.316406 335.730469 182.859375 336.953125 181.820312 337.425781 L 132.792969 359.722656 C 132.515625 359.851562 132.222656 359.910156 131.9375 359.910156 Z M 131.941406 359.910156 " fill-opacity="1" fill-rule="nonzero"/><path fill="#000000" d="M 131.855469 380.714844 C 131.035156 380.714844 130.261719 380.222656 129.9375 379.414062 C 129.515625 378.355469 130.027344 377.152344 131.089844 376.726562 L 180.246094 357.035156 C 181.304688 356.609375 182.503906 357.125 182.929688 358.183594 C 183.351562 359.246094 182.839844 360.449219 181.78125 360.875 L 132.625 380.566406 C 132.371094 380.667969 132.109375 380.714844 131.855469 380.714844 Z M 131.855469 380.714844 " fill-opacity="1" fill-rule="nonzero"/><path fill="#000000" d="M 131.890625 401.375 C 131.035156 401.375 130.234375 400.835938 129.9375 399.980469 C 129.566406 398.902344 130.140625 397.722656 131.214844 397.351562 L 180.210938 380.425781 C 181.289062 380.054688 182.464844 380.625 182.835938 381.703125 C 183.207031 382.785156 182.636719 383.960938 181.558594 384.335938 L 132.566406 401.257812 C 132.339844 401.335938 132.113281 401.375 131.890625 401.375 Z M 131.890625 401.375 " fill-opacity="1" fill-rule="nonzero"/><path fill="#000000" d="M 131.917969 421.96875 C 131.019531 421.96875 130.195312 421.378906 129.9375 420.472656 C 129.617188 419.378906 130.253906 418.230469 131.351562 417.914062 L 180.304688 403.808594 C 181.398438 403.488281 182.542969 404.125 182.855469 405.222656 C 183.171875 406.320312 182.539062 407.46875 181.441406 407.78125 L 132.488281 421.890625 C 132.300781 421.945312 132.109375 421.972656 131.917969 421.972656 Z M 131.917969 421.96875 " fill-opacity="1" fill-rule="nonzero"/><path fill="#000000" d="M 131.9375 442.609375 C 131 442.609375 130.148438 441.960938 129.929688 441.007812 C 129.675781 439.894531 130.367188 438.785156 131.476562 438.527344 L 180.484375 427.222656 C 181.597656 426.964844 182.707031 427.660156 182.960938 428.773438 C 183.214844 429.886719 182.523438 430.996094 181.410156 431.253906 L 132.402344 442.558594 C 132.25 442.59375 132.089844 442.609375 131.9375 442.609375 Z M 131.9375 442.609375 " fill-opacity="1" fill-rule="nonzero"/><path fill="#000000" d="M 131.917969 463.1875 C 130.929688 463.1875 130.054688 462.472656 129.882812 461.460938 C 129.695312 460.335938 130.453125 459.269531 131.578125 459.078125 L 180.625 450.773438 C 181.75 450.578125 182.816406 451.339844 183.007812 452.46875 C 183.199219 453.597656 182.441406 454.660156 181.316406 454.855469 L 132.265625 463.15625 C 132.148438 463.179688 132.035156 463.1875 131.917969 463.1875 Z M 131.917969 463.1875 " fill-opacity="1" fill-rule="nonzero"/><path fill="#000000" d="M 131.972656 483.800781 C 130.9375 483.800781 130.046875 483.023438 129.925781 481.96875 C 129.792969 480.835938 130.609375 479.808594 131.742188 479.679688 L 180.757812 474.078125 C 181.886719 473.949219 182.914062 474.765625 183.042969 475.898438 C 183.171875 477.03125 182.359375 478.058594 181.226562 478.1875 L 132.210938 483.789062 C 132.132812 483.800781 132.050781 483.800781 131.972656 483.800781 Z M 131.972656 483.800781 " fill-opacity="1" fill-rule="nonzero"/><path fill="#000000" d="M 131.960938 504.480469 C 130.871094 504.480469 129.964844 503.628906 129.902344 502.53125 C 129.835938 501.390625 130.707031 500.414062 131.847656 500.347656 L 180.980469 497.539062 C 182.113281 497.464844 183.09375 498.34375 183.160156 499.488281 C 183.226562 500.628906 182.355469 501.601562 181.214844 501.667969 L 132.078125 504.476562 C 132.039062 504.476562 132 504.476562 131.960938 504.476562 Z M 131.960938 504.480469 " fill-opacity="1" fill-rule="nonzero"/><g clip-path="url(#c40abbcb7c)"><path fill="#000000" d="M 254.167969 525.085938 L 189.039062 525.085938 C 187.898438 525.085938 186.972656 524.160156 186.972656 523.019531 L 186.972656 236.167969 C 186.972656 235.398438 187.398438 234.695312 188.074219 234.335938 C 188.753906 233.976562 189.574219 234.027344 190.207031 234.460938 L 255.335938 279.152344 C 255.898438 279.539062 256.234375 280.175781 256.234375 280.859375 L 256.234375 523.015625 C 256.234375 524.15625 255.308594 525.085938 254.167969 525.085938 Z M 191.105469 520.953125 L 252.105469 520.953125 L 252.105469 281.949219 L 191.105469 240.089844 Z M 191.105469 520.953125 " fill-opacity="1" fill-rule="nonzero"/></g><path fill="#000000" d="M 246.183594 298.097656 C 245.808594 298.097656 245.429688 297.992188 245.089844 297.777344 L 195.828125 266.847656 C 194.863281 266.242188 194.570312 264.964844 195.175781 263.996094 C 195.78125 263.027344 197.054688 262.734375 198.023438 263.34375 L 247.28125 294.273438 C 248.25 294.878906 248.542969 296.15625 247.933594 297.125 C 247.542969 297.75 246.871094 298.09375 246.183594 298.09375 Z M 246.183594 298.097656 " fill-opacity="1" fill-rule="nonzero"/><path fill="#000000" d="M 246.128906 318.566406 C 245.78125 318.566406 245.429688 318.480469 245.105469 318.296875 L 196.089844 290.316406 C 195.101562 289.75 194.757812 288.484375 195.320312 287.496094 C 195.886719 286.503906 197.144531 286.160156 198.136719 286.722656 L 247.152344 314.703125 C 248.140625 315.269531 248.484375 316.535156 247.921875 317.523438 C 247.539062 318.191406 246.84375 318.566406 246.125 318.566406 Z M 246.128906 318.566406 " fill-opacity="1" fill-rule="nonzero"/><path fill="#000000" d="M 246.15625 339.347656 C 245.839844 339.347656 245.515625 339.273438 245.210938 339.117188 L 196.273438 313.890625 C 195.257812 313.367188 194.859375 312.121094 195.382812 311.105469 C 195.90625 310.089844 197.148438 309.6875 198.164062 310.210938 L 247.101562 335.4375 C 248.117188 335.960938 248.515625 337.207031 247.992188 338.222656 C 247.628906 338.9375 246.90625 339.34375 246.15625 339.34375 Z M 246.15625 339.347656 " fill-opacity="1" fill-rule="nonzero"/><path fill="#000000" d="M 246.121094 360.011719 C 245.835938 360.011719 245.542969 359.953125 245.265625 359.824219 L 196.292969 337.382812 C 195.253906 336.90625 194.796875 335.679688 195.273438 334.640625 C 195.746094 333.605469 196.972656 333.144531 198.007812 333.621094 L 246.980469 356.066406 C 248.019531 356.539062 248.476562 357.769531 248 358.804688 C 247.652344 359.5625 246.90625 360.011719 246.121094 360.011719 Z M 246.121094 360.011719 " fill-opacity="1" fill-rule="nonzero"/><path fill="#000000" d="M 246.058594 380.554688 C 245.804688 380.554688 245.542969 380.503906 245.292969 380.40625 L 196.324219 360.746094 C 195.265625 360.324219 194.753906 359.117188 195.175781 358.058594 C 195.597656 357 196.804688 356.480469 197.859375 356.90625 L 246.828125 376.566406 C 247.886719 376.988281 248.398438 378.195312 247.976562 379.253906 C 247.652344 380.058594 246.878906 380.554688 246.058594 380.554688 Z M 246.058594 380.554688 " fill-opacity="1" fill-rule="nonzero"/><path fill="#000000" d="M 246.039062 401.269531 C 245.816406 401.269531 245.589844 401.230469 245.367188 401.15625 L 196.476562 384.339844 C 195.398438 383.96875 194.824219 382.792969 195.191406 381.714844 C 195.566406 380.636719 196.738281 380.058594 197.816406 380.429688 L 246.707031 397.242188 C 247.785156 397.617188 248.359375 398.792969 247.992188 399.871094 C 247.699219 400.730469 246.894531 401.265625 246.039062 401.265625 Z M 246.039062 401.269531 " fill-opacity="1" fill-rule="nonzero"/><path fill="#000000" d="M 246.082031 421.96875 C 245.894531 421.96875 245.703125 421.941406 245.511719 421.886719 L 196.582031 407.792969 C 195.484375 407.472656 194.851562 406.328125 195.164062 405.234375 C 195.480469 404.136719 196.625 403.503906 197.71875 403.816406 L 246.652344 417.914062 C 247.746094 418.230469 248.378906 419.375 248.066406 420.46875 C 247.804688 421.375 246.976562 421.964844 246.082031 421.964844 Z M 246.082031 421.96875 " fill-opacity="1" fill-rule="nonzero"/><path fill="#000000" d="M 246.21875 442.597656 C 246.066406 442.597656 245.90625 442.578125 245.753906 442.542969 L 196.527344 431.210938 C 195.417969 430.957031 194.722656 429.847656 194.980469 428.734375 C 195.234375 427.617188 196.339844 426.925781 197.453125 427.179688 L 246.679688 438.515625 C 247.789062 438.769531 248.484375 439.878906 248.226562 440.992188 C 248.007812 441.953125 247.15625 442.601562 246.21875 442.601562 Z M 246.21875 442.597656 " fill-opacity="1" fill-rule="nonzero"/><path fill="#000000" d="M 246 463.207031 C 245.882812 463.207031 245.765625 463.195312 245.648438 463.175781 L 196.746094 454.785156 C 195.621094 454.59375 194.867188 453.523438 195.058594 452.394531 C 195.25 451.269531 196.320312 450.515625 197.445312 450.707031 L 246.347656 459.097656 C 247.472656 459.289062 248.226562 460.359375 248.035156 461.484375 C 247.863281 462.492188 246.988281 463.207031 246 463.207031 Z M 246 463.207031 " fill-opacity="1" fill-rule="nonzero"/><path fill="#000000" d="M 246.042969 483.800781 C 245.964844 483.800781 245.886719 483.800781 245.808594 483.789062 L 196.863281 478.238281 C 195.730469 478.113281 194.914062 477.085938 195.042969 475.949219 C 195.167969 474.816406 196.195312 474 197.328125 474.125 L 246.273438 479.675781 C 247.40625 479.804688 248.222656 480.828125 248.09375 481.964844 C 247.972656 483.019531 247.082031 483.800781 246.046875 483.800781 Z M 246.042969 483.800781 " fill-opacity="1" fill-rule="nonzero"/><path fill="#000000" d="M 246.023438 504.566406 C 245.980469 504.566406 245.9375 504.566406 245.898438 504.5625 L 196.917969 501.660156 C 195.777344 501.59375 194.910156 500.613281 194.980469 499.476562 C 195.046875 498.335938 196.023438 497.460938 197.160156 497.535156 L 246.140625 500.4375 C 247.28125 500.507812 248.148438 501.484375 248.078125 502.625 C 248.015625 503.722656 247.105469 504.570312 246.023438 504.570312 Z M 246.023438 504.566406 " fill-opacity="1" fill-rule="nonzero"/><g clip-path="url(#5cf133309a)"><path fill="#000000" d="M 343.3125 525.085938 L 34.828125 525.085938 C 33.691406 525.085938 32.765625 524.160156 32.765625 523.019531 C 32.765625 521.878906 33.691406 520.953125 34.828125 520.953125 L 343.3125 520.953125 C 344.453125 520.953125 345.378906 521.878906 345.378906 523.019531 C 345.378906 524.160156 344.453125 525.085938 343.3125 525.085938 Z M 343.3125 525.085938 " fill-opacity="1" fill-rule="nonzero"/></g><g transform="matrix(1, 0, 0, 1, 391, 326)"><g clip-path="url(#76e060dd17)"><g fill="#000000" fill-opacity="1"><g transform="translate(0.24768, 173.193168)"><g><path d="M 47 -161.25 C 59.582031 -161.25 68.832031 -157.675781 74.75 -150.53125 C 80.664062 -143.394531 83.625 -133.609375 83.625 -121.171875 L 83.625 -39.859375 C 83.625 -27.410156 80.664062 -17.65625 74.75 -10.59375 C 68.832031 -3.53125 59.582031 0 47 0 L 9.21875 0 L 9.21875 -161.25 Z M 46.765625 -16.359375 C 53.210938 -16.359375 58.007812 -18.316406 61.15625 -22.234375 C 64.300781 -26.148438 65.875 -31.789062 65.875 -39.15625 L 65.875 -122.09375 C 65.875 -129.457031 64.300781 -135.097656 61.15625 -139.015625 C 58.007812 -142.929688 53.132812 -144.890625 46.53125 -144.890625 L 27.1875 -144.890625 L 27.1875 -16.359375 Z M 46.765625 -16.359375 "/></g></g></g><g fill="#000000" fill-opacity="1"><g transform="translate(91.469753, 173.193168)"><g><path d="M 45.15625 -161.25 C 57.894531 -161.25 67.066406 -158.097656 72.671875 -151.796875 C 78.285156 -145.503906 81.09375 -136.367188 81.09375 -124.390625 L 81.09375 -111.265625 C 81.09375 -102.359375 79.476562 -95.140625 76.25 -89.609375 C 73.019531 -84.078125 67.953125 -80.238281 61.046875 -78.09375 C 68.421875 -75.9375 73.640625 -71.976562 76.703125 -66.21875 C 79.773438 -60.46875 81.3125 -53.210938 81.3125 -44.453125 L 81.3125 -19.34375 C 81.3125 -15.8125 81.460938 -12.394531 81.765625 -9.09375 C 82.078125 -5.789062 83.003906 -2.757812 84.546875 0 L 66.34375 0 C 65.269531 -2.300781 64.5 -4.796875 64.03125 -7.484375 C 63.570312 -10.171875 63.34375 -14.203125 63.34375 -19.578125 L 63.34375 -44.921875 C 63.34375 -53.984375 61.304688 -60.238281 57.234375 -63.6875 C 53.171875 -67.144531 47.378906 -68.875 39.859375 -68.875 L 27.1875 -68.875 L 27.1875 0 L 9.21875 0 L 9.21875 -161.25 Z M 40.546875 -85.234375 C 47.765625 -85.234375 53.367188 -86.726562 57.359375 -89.71875 C 61.347656 -92.71875 63.34375 -98.59375 63.34375 -107.34375 L 63.34375 -122.78125 C 63.34375 -130.15625 61.921875 -135.679688 59.078125 -139.359375 C 56.242188 -143.046875 51.445312 -144.890625 44.6875 -144.890625 L 27.1875 -144.890625 L 27.1875 -85.234375 Z M 40.546875 -85.234375 "/></g></g></g><g fill="#000000" fill-opacity="1"><g transform="translate(182.231144, 173.193168)"><g><path d="M 7.828125 -122.328125 C 7.828125 -134.765625 10.859375 -144.628906 16.921875 -151.921875 C 22.992188 -159.210938 32.25 -162.859375 44.6875 -162.859375 C 57.125 -162.859375 66.414062 -159.210938 72.5625 -151.921875 C 78.707031 -144.628906 81.78125 -134.765625 81.78125 -122.328125 L 81.78125 -38.9375 C 81.78125 -26.644531 78.707031 -16.8125 72.5625 -9.4375 C 66.414062 -2.070312 57.125 1.609375 44.6875 1.609375 C 32.25 1.609375 22.992188 -2.070312 16.921875 -9.4375 C 10.859375 -16.8125 7.828125 -26.644531 7.828125 -38.9375 Z M 25.5625 -38.015625 C 25.5625 -30.640625 27.132812 -24.914062 30.28125 -20.84375 C 33.4375 -16.78125 38.238281 -14.75 44.6875 -14.75 C 51.289062 -14.75 56.128906 -16.78125 59.203125 -20.84375 C 62.273438 -24.914062 63.8125 -30.640625 63.8125 -38.015625 L 63.8125 -123.25 C 63.8125 -130.613281 62.273438 -136.332031 59.203125 -140.40625 C 56.128906 -144.476562 51.289062 -146.515625 44.6875 -146.515625 C 38.238281 -146.515625 33.4375 -144.476562 30.28125 -140.40625 C 27.132812 -136.332031 25.5625 -130.613281 25.5625 -123.25 Z M 25.5625 -38.015625 "/></g></g></g><g fill="#000000" fill-opacity="1"><g transform="translate(271.840717, 173.193168)"><g><path d="M 68.640625 -0.234375 L 51.375 -0.234375 L 24.65625 -128.546875 L 24.65625 0 L 8.984375 0 L 8.984375 -161.25 L 34.09375 -161.25 L 60.578125 -32.484375 L 86.15625 -161.25 L 111.265625 -161.25 L 111.265625 0 L 94.21875 0 L 94.21875 -129.6875 Z M 68.640625 -0.234375 "/></g></g></g><g fill="#000000" fill-opacity="1"><g transform="translate(392.318257, 173.193168)"><g><path d="M 27.1875 -161.25 L 27.1875 0 L 9.21875 0 L 9.21875 -161.25 Z M 27.1875 -161.25 "/></g></g></g></g></g></svg>